<svg width="109" height="109" viewBox="0 0 109 109" fill="none" xmlns="http://www.w3.org/2000/svg">
<circle cx="54.5" cy="54.5" r="54" fill="#88A6C2" stroke="black"/>
<circle cx="54.5" cy="54.5" r="49" fill="white" stroke="black"/>
<mask id="path-3-outside-1" maskUnits="userSpaceOnUse" x="29" y="26" width="51" height="56" fill="black">
<rect fill="white" x="29" y="26" width="51" height="56"/>
<path fill-rule="evenodd" clip-rule="evenodd" d="M34.9004 49.0137H43.584L51.6074 63.9688H55.0254V80.9688H78.5117V76.9824H59.9004V63.8809H75.9219V59.8945H59.9004V48.0117H78.2578V44H55.0254V60.3888L48.1543 47.9727C50.3717 47.1263 52.0983 45.8483 53.334 44.1387C54.5866 42.429 55.2129 40.4232 55.2129 38.1211C55.2129 34.4987 54.0872 31.7396 51.8359 29.8438C49.6016 27.9479 46.4023 27 42.2383 27H30V63.9688H34.9004V49.0137ZM42.3906 45.0273H34.9004V31.0117H42.3652C44.9382 31.0286 46.9017 31.6465 48.2559 32.8652C49.627 34.084 50.3125 35.8359 50.3125 38.1211C50.3125 40.2201 49.5931 41.8958 48.1543 43.1484C46.7324 44.401 44.8112 45.0273 42.3906 45.0273Z"/>
</mask>
<path fill-rule="evenodd" clip-rule="evenodd" d="M34.9004 49.0137H43.584L51.6074 63.9688H55.0254V80.9688H78.5117V76.9824H59.9004V63.8809H75.9219V59.8945H59.9004V48.0117H78.2578V44H55.0254V60.3888L48.1543 47.9727C50.3717 47.1263 52.0983 45.8483 53.334 44.1387C54.5866 42.429 55.2129 40.4232 55.2129 38.1211C55.2129 34.4987 54.0872 31.7396 51.8359 29.8438C49.6016 27.9479 46.4023 27 42.2383 27H30V63.9688H34.9004V49.0137ZM42.3906 45.0273H34.9004V31.0117H42.3652C44.9382 31.0286 46.9017 31.6465 48.2559 32.8652C49.627 34.084 50.3125 35.8359 50.3125 38.1211C50.3125 40.2201 49.5931 41.8958 48.1543 43.1484C46.7324 44.401 44.8112 45.0273 42.3906 45.0273Z" fill="#FF4242"/>
<path d="M43.584 49.0137L44.4652 48.5409L44.1823 48.0137H43.584V49.0137ZM34.9004 49.0137V48.0137H33.9004V49.0137H34.9004ZM51.6074 63.9688L50.7262 64.4415L51.0091 64.9688H51.6074V63.9688ZM55.0254 63.9688H56.0254V62.9688H55.0254V63.9688ZM55.0254 80.9688H54.0254V81.9688H55.0254V80.9688ZM78.5117 80.9688V81.9688H79.5117V80.9688H78.5117ZM78.5117 76.9824H79.5117V75.9824H78.5117V76.9824ZM59.9004 76.9824H58.9004V77.9824H59.9004V76.9824ZM59.9004 63.8809V62.8809H58.9004V63.8809H59.9004ZM75.9219 63.8809V64.8809H76.9219V63.8809H75.9219ZM75.9219 59.8945H76.9219V58.8945H75.9219V59.8945ZM59.9004 59.8945H58.9004V60.8945H59.9004V59.8945ZM59.9004 48.0117V47.0117H58.9004V48.0117H59.9004ZM78.2578 48.0117V49.0117H79.2578V48.0117H78.2578ZM78.2578 44H79.2578V43H78.2578V44ZM55.0254 44V43H54.0254V44H55.0254ZM55.0254 60.3888L54.1504 60.873L56.0254 64.2611V60.3888H55.0254ZM48.1543 47.9727L47.7977 47.0384L46.7217 47.4491L47.2793 48.4569L48.1543 47.9727ZM53.334 44.1387L52.5273 43.5476L52.5235 43.5529L53.334 44.1387ZM51.8359 29.8438L51.189 30.6063L51.1918 30.6087L51.8359 29.8438ZM30 27V26H29V27H30ZM30 63.9688H29V64.9688H30V63.9688ZM34.9004 63.9688V64.9688H35.9004V63.9688H34.9004ZM34.9004 45.0273H33.9004V46.0273H34.9004V45.0273ZM34.9004 31.0117V30.0117H33.9004V31.0117H34.9004ZM42.3652 31.0117L42.3718 30.0117H42.3652V31.0117ZM48.2559 32.8652L47.5869 33.6085L47.5915 33.6126L48.2559 32.8652ZM48.1543 43.1484L47.4977 42.3942L47.4933 42.3981L48.1543 43.1484ZM43.584 48.0137H34.9004V50.0137H43.584V48.0137ZM52.4886 63.496L44.4652 48.5409L42.7028 49.4864L50.7262 64.4415L52.4886 63.496ZM55.0254 62.9688H51.6074V64.9688H55.0254V62.9688ZM56.0254 80.9688V63.9688H54.0254V80.9688H56.0254ZM78.5117 79.9688H55.0254V81.9688H78.5117V79.9688ZM77.5117 76.9824V80.9688H79.5117V76.9824H77.5117ZM59.9004 77.9824H78.5117V75.9824H59.9004V77.9824ZM58.9004 63.8809V76.9824H60.9004V63.8809H58.9004ZM75.9219 62.8809H59.9004V64.8809H75.9219V62.8809ZM74.9219 59.8945V63.8809H76.9219V59.8945H74.9219ZM59.9004 60.8945H75.9219V58.8945H59.9004V60.8945ZM58.9004 48.0117V59.8945H60.9004V48.0117H58.9004ZM78.2578 47.0117H59.9004V49.0117H78.2578V47.0117ZM77.2578 44V48.0117H79.2578V44H77.2578ZM55.0254 45H78.2578V43H55.0254V45ZM56.0254 60.3888V44H54.0254V60.3888H56.0254ZM47.2793 48.4569L54.1504 60.873L55.9003 59.9046L49.0293 47.4885L47.2793 48.4569ZM52.5235 43.5529C51.4159 45.0854 49.8567 46.2525 47.7977 47.0384L48.5109 48.9069C50.8868 48.0001 52.7807 46.6112 54.1445 44.7245L52.5235 43.5529ZM54.2129 38.1211C54.2129 40.23 53.6433 42.0244 52.5273 43.5477L54.1406 44.7297C55.5298 42.8336 56.2129 40.6164 56.2129 38.1211H54.2129ZM51.1918 30.6087C53.1662 32.2713 54.2129 34.7193 54.2129 38.1211H56.2129C56.2129 34.2781 55.0083 31.2079 52.4801 29.0788L51.1918 30.6087ZM42.2383 28C46.2637 28 49.1983 28.9172 51.189 30.6063L52.4829 29.0812C50.0048 26.9786 46.541 26 42.2383 26V28ZM30 28H42.2383V26H30V28ZM31 63.9688V27H29V63.9688H31ZM34.9004 62.9688H30V64.9688H34.9004V62.9688ZM33.9004 49.0137V63.9688H35.9004V49.0137H33.9004ZM34.9004 46.0273H42.3906V44.0273H34.9004V46.0273ZM33.9004 31.0117V45.0273H35.9004V31.0117H33.9004ZM42.3652 30.0117H34.9004V32.0117H42.3652V30.0117ZM48.9248 32.1219C47.3259 30.6829 45.0892 30.0296 42.3718 30.0117L42.3587 32.0117C44.7871 32.0277 46.4775 32.6101 47.5869 33.6085L48.9248 32.1219ZM51.3125 38.1211C51.3125 35.6259 50.5555 33.5714 48.9202 32.1178L47.5915 33.6126C48.6984 34.5966 49.3125 36.0459 49.3125 38.1211H51.3125ZM48.8109 43.9027C50.4913 42.4397 51.3125 40.4767 51.3125 38.1211H49.3125C49.3125 39.9634 48.6949 41.3519 47.4977 42.3942L48.8109 43.9027ZM42.3906 46.0273C44.9851 46.0273 47.1647 45.3529 48.8153 43.8988L47.4933 42.3981C46.3002 43.4491 44.6373 44.0273 42.3906 44.0273V46.0273Z" fill="black" mask="url(#path-3-outside-1)"/>
</svg>
